<svg width="50" height="50" viewBox="0 0 50 50" fill="none" xmlns="http://www.w3.org/2000/svg">
<path d="M25 0C11.1933 0 0 11.1933 0 25C0 36.8048 8.18462 46.6923 19.1875 49.3135C18.6183 49.1779 18.0538 49.026 17.5 48.8529V43.125C17.5 43.125 16.5625 43.4375 15.3125 43.4375C11.8154 43.4375 10.3625 40.3173 10 38.75C9.77981 37.7952 9.20481 36.8904 8.5875 36.3375C7.85 35.6798 7.50481 35.6779 7.5 35.4529C7.49038 34.9808 8.13269 35 8.4375 35C10 35 11.1846 36.6625 11.7346 37.5221C13.0971 39.6442 14.5596 40 15.3125 40C16.25 40 17.0596 39.8596 17.6173 39.5904C17.875 37.775 18.6827 36.1577 20 35C14.1375 33.8279 10 30.4654 10 25C10 22.1846 11.1298 19.5971 13.0125 17.5077C12.8202 16.9625 12.5 15.8596 12.5 14.0625C12.5 12.875 12.5827 11.4173 13.125 10C13.125 10 16.6904 10.025 20.0529 13.2096C21.6048 12.7577 23.2654 12.5 25 12.5C26.7346 12.5 28.3952 12.7577 29.9471 13.2096C33.3096 10.025 36.875 10 36.875 10C37.4202 11.4173 37.5 12.875 37.5 14.0625C37.5 16 37.2423 17.1298 37.0846 17.6173C38.9096 19.6875 40 22.2346 40 25C40 30.4654 35.8625 33.8279 30 35C31.5654 36.375 32.5 38.3779 32.5 40.625V48.8529C31.9462 49.0269 31.3827 49.1779 30.8125 49.3135C41.8154 46.6923 50 36.8048 50 25C50 11.1933 38.8067 0 25 0ZM26.7433 49.9327C26.1673 49.9731 25.5865 50 25 50C25.5865 50 26.1663 49.9721 26.7433 49.9327ZM25 50C24.4135 50 23.8327 49.9731 23.2567 49.9327C23.8337 49.9721 24.4135 50 25 50ZM22.8731 49.9038C21.7029 49.8048 20.5548 49.626 19.4365 49.3712C20.5558 49.625 21.7029 49.8048 22.8731 49.9038Z" fill="#FF4A57"/>
</svg>
