<svg width="50" height="50" viewBox="0 0 50 50" fill="none" xmlns="http://www.w3.org/2000/svg">
<path d="M44.4444 0H5.55556C2.48611 0 0 2.48611 0 5.55556V44.4444C0 47.5139 2.48611 50 5.55556 50H44.4444C47.5139 50 50 47.5139 50 44.4444V5.55556C50 2.48611 47.5139 0 44.4444 0ZM16.6667 38.8889H9.65833V19.4444H16.6667V38.8889ZM13.0389 15.8806C10.8972 15.8806 9.46667 14.4528 9.46667 12.5472C9.46667 10.6417 10.8944 9.21389 13.275 9.21389C15.4167 9.21389 16.8472 10.6417 16.8472 12.5472C16.8472 14.4528 15.4194 15.8806 13.0389 15.8806ZM41.6667 38.8889H34.8833V28.2611C34.8833 25.3222 33.075 24.6444 32.3972 24.6444C31.7194 24.6444 29.4583 25.0972 29.4583 28.2611C29.4583 28.7139 29.4583 38.8889 29.4583 38.8889H22.45V19.4444H29.4583V22.1583C30.3611 20.575 32.1694 19.4444 35.5611 19.4444C38.9528 19.4444 41.6667 22.1583 41.6667 28.2611V38.8889Z" fill="#FF4A57"/>
</svg>
