<svg width="64" height="50" viewBox="0 0 64 50" fill="none" xmlns="http://www.w3.org/2000/svg">
<path d="M1.6 1.5625C0.08 3.04688 0 4.14062 0 25C0 45.8594 0.08 46.9531 1.6 48.4375C3.12 49.9219 4.24 50 32 50C59.76 50 60.88 49.9219 62.4 48.4375C63.92 46.9531 64 45.8594 64 25C64 4.14062 63.92 3.04688 62.4 1.5625C60.88 0.078125 59.76 0 32 0C4.24 0 3.12 0.078125 1.6 1.5625ZM20.88 15.7031C26.48 19.1406 31.44 21.875 32 21.875C32.56 21.875 37.84 18.9062 43.76 15.3125C54.24 8.90625 56.8 8.04688 56.8 10.9375C56.8 11.9531 53.04 14.6875 44.4 19.9219L32 27.5L19.6 19.9219C10.88 14.6094 7.2 11.9531 7.2 10.9375C7.2 9.45312 8.64 8.51562 10 9.21875C10.48 9.45312 15.36 12.3438 20.88 15.7031Z" fill="#FF4A57"/>
</svg>
