<svg width="56" height="45" viewBox="0 0 56 45" fill="none" xmlns="http://www.w3.org/2000/svg">
<path d="M4.2 45C3.08 45 2.1 44.5781 1.26 43.7344C0.42 42.8906 0 41.9062 0 40.7812V4.21875C0 3.09375 0.42 2.10938 1.26 1.26562C2.1 0.421875 3.08 0 4.2 0H51.8C52.92 0 53.9 0.421875 54.74 1.26562C55.58 2.10938 56 3.09375 56 4.21875V40.7812C56 41.9062 55.58 42.8906 54.74 43.7344C53.9 44.5781 52.92 45 51.8 45H4.2ZM28 23.7656L51.8 8.08594V4.21875L28 19.5469L4.2 4.21875V8.08594L28 23.7656Z" fill="#FF4A57"/>
</svg>
